<?xml version="1.0" standalone="no"?>
<!DOCTYPE svg PUBLIC "-//W3C//DTD SVG 20010904//EN"
 "http://www.w3.org/TR/2001/REC-SVG-20010904/DTD/svg10.dtd">
<svg version="1.0" xmlns="http://www.w3.org/2000/svg"
 width="512.000000pt" height="512.000000pt" viewBox="0 0 512.000000 512.000000"
 preserveAspectRatio="xMidYMid meet">

<g transform="translate(0.000000,512.000000) scale(0.100000,-0.100000)"
fill="#eeeeee" stroke="none">
<path d="M78 5099 c-23 -12 -46 -35 -58 -59 -20 -39 -20 -54 -20 -2480 0
-2427 0 -2441 20 -2480 13 -26 34 -47 60 -60 39 -20 53 -20 2480 -20 2427 0
2441 0 2480 20 26 13 47 34 60 60 20 39 20 53 20 2480 0 2427 0 2441 -20 2480
-13 26 -34 47 -60 60 -39 20 -53 20 -2482 20 -2413 -1 -2443 -1 -2480 -21z
m2932 -434 l0 -155 -1355 0 -1355 0 0 155 0 155 1355 0 1355 0 0 -155z m600 0
l0 -155 -150 0 -150 0 0 155 0 155 150 0 150 0 0 -155z m600 0 l0 -155 -150 0
-150 0 0 155 0 155 150 0 150 0 0 -155z m610 0 l0 -155 -155 0 -155 0 0 155 0
155 155 0 155 0 0 -155z m-3310 -2410 l0 -1955 -605 0 -605 0 0 1955 0 1955
605 0 605 0 0 -1955z m3310 0 l0 -1955 -1505 0 -1505 0 0 1955 0 1955 1505 0
1505 0 0 -1955z"/>
<path d="M689 3888 c-43 -24 -79 -83 -79 -128 0 -46 36 -104 80 -129 35 -19
53 -21 219 -21 161 0 186 2 220 20 41 21 81 85 81 130 0 45 -40 109 -81 130
-34 18 -59 20 -221 20 -168 0 -186 -2 -219 -22z"/>
<path d="M689 3288 c-43 -24 -79 -83 -79 -128 0 -46 36 -104 80 -129 35 -19
53 -21 219 -21 161 0 186 2 220 20 41 21 81 85 81 130 0 45 -40 109 -81 130
-34 18 -59 20 -221 20 -168 0 -186 -2 -219 -22z"/>
<path d="M688 2689 c-43 -22 -78 -81 -78 -129 0 -50 35 -107 80 -130 35 -18
59 -20 220 -20 210 0 244 10 280 80 25 50 25 90 0 140 -36 71 -69 80 -282 80
-162 -1 -187 -3 -220 -21z"/>
<path d="M3155 3749 c-507 -69 -906 -440 -1022 -951 -23 -102 -23 -374 0 -476
112 -489 476 -847 962 -943 103 -21 349 -18 455 5 452 97 804 434 922 881 29
113 31 131 31 295 0 164 -2 183 -31 293 -118 451 -473 789 -927 882 -98 20
-295 27 -390 14z m32 -1275 c31 -43 85 -68 137 -61 30 3 138 59 391 204 482
274 435 250 445 233 44 -70 60 -361 27 -493 -81 -328 -328 -581 -652 -668
-105 -29 -325 -32 -428 -6 -336 84 -590 338 -674 674 -26 103 -23 323 6 428
84 310 339 566 641 643 l75 20 5 -472 c5 -467 5 -471 27 -502z m417 935 c90
-30 183 -82 264 -147 67 -53 139 -129 131 -136 -4 -4 -480 -275 -516 -295
l-23 -12 0 315 0 314 41 -9 c23 -6 69 -19 103 -30z"/>
<path d="M2189 1038 c-43 -24 -79 -83 -79 -128 0 -46 36 -104 80 -129 l38 -21
1083 0 1084 0 39 23 c100 57 100 197 0 254 l-39 23 -1085 0 -1085 0 -36 -22z"/>
</g>
</svg>
