<?xml version="1.0" standalone="no"?>
<!DOCTYPE svg PUBLIC "-//W3C//DTD SVG 20010904//EN"
 "http://www.w3.org/TR/2001/REC-SVG-20010904/DTD/svg10.dtd">
<svg version="1.0" xmlns="http://www.w3.org/2000/svg"
 width="512.000000pt" height="512.000000pt" viewBox="0 0 512.000000 512.000000"
 preserveAspectRatio="xMidYMid meet">

<g transform="translate(0.000000,512.000000) scale(0.100000,-0.100000)"
fill="#eeeeee" stroke="none">
<path d="M307 4850 c-148 -47 -263 -175 -296 -328 -16 -75 -16 -3849 0 -3924
33 -155 148 -282 298 -328 62 -20 100 -20 2251 -20 2151 0 2189 0 2251 20 150
46 265 173 298 328 8 38 11 460 11 1475 0 1553 3 1479 -57 1589 -35 65 -130
153 -198 184 -30 14 -84 30 -120 36 l-65 11 0 181 c0 201 -13 282 -55 366 -35
68 -117 150 -185 185 -109 55 -96 55 -1233 55 l-1047 0 -50 78 c-27 42 -62 85
-78 95 -28 16 -86 17 -849 16 -770 0 -821 -1 -876 -19z m1851 -734 c156 -255
293 -473 306 -485 13 -12 38 -26 57 -31 21 -6 441 -10 1112 -10 1195 0 1124 4
1167 -65 20 -32 20 -46 20 -1457 l0 -1425 -23 -34 c-12 -19 -38 -42 -57 -51
-33 -17 -158 -18 -2180 -18 -2022 0 -2147 1 -2180 18 -19 9 -45 32 -57 51
l-23 34 0 1917 0 1917 23 34 c48 72 8 69 822 69 l730 -1 283 -463z m2141 246
c72 -36 76 -50 79 -273 l3 -199 -870 0 -869 0 -146 239 c-80 131 -146 241
-146 245 0 3 431 6 958 6 891 0 959 -1 991 -18z"/>
</g>
</svg>
